# xmcd
#
# Track frame offsets:
#	150
#	12256
#	32760
#	50092
#	70065
#	92409
#	108683
#	119752
#	143059
#	157515
#	175121
#	192929
#
# Disc length: 2744 seconds
#
# Revision: 0
# Processed by: cddbd v1.5.2PL0 Copyright (c) Steve Scherf et al.
# Submitted via: dBpowerAMP V4.0
#
DISCID=9b0ab60c
DTITLE=Hymn for Her - Lucy and Wayne and the Amairican Stream
DYEAR=2010
DGENRE=Alt-Country
TTITLE0=Slips
TTITLE1=Grave
TTITLE2=Sea
TTITLE3=Fiddlestix
TTITLE4=Not
TTITLE5=Montana
TTITLE6=Cave
TTITLE7=Here
TTITLE8=C'mon
TTITLE9=Sangre
TTITLE10=Thursday
TTITLE11=Odette
EXTD=
EXTT0=
EXTT1=
EXTT2=
EXTT3=
EXTT4=
EXTT5=
EXTT6=
EXTT7=
EXTT8=
EXTT9=
EXTT10=
EXTT11=
PLAYORDER=
